<svg xmlns="http://www.w3.org/2000/svg" viewBox="0 0 1280 640">
  <rect width="1280" height="640" fill="#0d1117"/>
  <rect x="40" y="40" width="1200" height="560" rx="16" fill="#161b22" stroke="#30363d" stroke-width="2"/>
  <rect x="40" y="40" width="1200" height="40" rx="16" fill="#1c2128"/>
  <rect x="40" y="64" width="1200" height="16" fill="#1c2128"/>
  <circle cx="68" cy="60" r="7" fill="#ff5f56"/>
  <circle cx="92" cy="60" r="7" fill="#ffbd2e"/>
  <circle cx="116" cy="60" r="7" fill="#27c93f"/>
  <text x="640" y="62" text-anchor="middle" font-family="monospace" font-size="14" fill="#8b949e">StarlingApp</text>
  <text x="80" y="120" font-family="monospace" font-size="13" fill="#8b949e">Agents  Models  Files  Queue  History  Config  Skills  Cron  Status  Docs</text>
  <line x1="80" y1="128" x2="138" y2="128" stroke="#58a6ff" stroke-width="2"/>
  <text x="640" y="220" text-anchor="middle" font-family="monospace" font-size="64" font-weight="bold" fill="#e6edf3">Starling</text>
  <text x="640" y="280" text-anchor="middle" font-family="monospace" font-size="22" fill="#8b949e">Config-driven terminal UI for multi-agent AI crews</text>
  <text x="640" y="340" text-anchor="middle" font-family="monospace" font-size="16" fill="#58a6ff">21 model presets  |  Telegram bot  |  Cron scheduler  |  Background daemon</text>
  <rect x="160" y="390" width="200" height="160" rx="8" fill="#1c2128" stroke="#00d4aa" stroke-width="1"/>
  <text x="260" y="420" text-anchor="middle" font-family="monospace" font-size="13" fill="#00d4aa">CEO</text>
  <text x="260" y="445" text-anchor="middle" font-family="monospace" font-size="11" fill="#484f58">Grok 4.1 Fast</text>
  <text x="170" y="475" font-family="monospace" font-size="11" fill="#7ee787">Running crew...</text>
  <text x="170" y="495" font-family="monospace" font-size="10" fill="#484f58">Task 2/5 complete</text>
  <rect x="390" y="390" width="200" height="160" rx="8" fill="#1c2128" stroke="#3fb950" stroke-width="1"/>
  <text x="490" y="420" text-anchor="middle" font-family="monospace" font-size="13" fill="#3fb950">Coordinator</text>
  <text x="490" y="445" text-anchor="middle" font-family="monospace" font-size="11" fill="#484f58">Grok Reasoning</text>
  <text x="400" y="475" font-family="monospace" font-size="11" fill="#7ee787">Compiling report</text>
  <text x="400" y="495" font-family="monospace" font-size="10" fill="#484f58">7 tools assigned</text>
  <rect x="620" y="390" width="200" height="160" rx="8" fill="#1c2128" stroke="#d29922" stroke-width="1"/>
  <text x="720" y="420" text-anchor="middle" font-family="monospace" font-size="13" fill="#d29922">Researcher</text>
  <text x="720" y="445" text-anchor="middle" font-family="monospace" font-size="11" fill="#484f58">Kimi K2.5</text>
  <text x="630" y="475" font-family="monospace" font-size="11" fill="#7ee787">Searching web...</text>
  <text x="630" y="495" font-family="monospace" font-size="10" fill="#484f58">ddg_search active</text>
  <rect x="850" y="390" width="200" height="160" rx="8" fill="#1c2128" stroke="#bc8cff" stroke-width="1"/>
  <text x="950" y="420" text-anchor="middle" font-family="monospace" font-size="13" fill="#bc8cff">SEO Agent</text>
  <text x="950" y="445" text-anchor="middle" font-family="monospace" font-size="11" fill="#484f58">Grok Reasoning</text>
  <text x="860" y="475" font-family="monospace" font-size="11" fill="#484f58">Waiting for task</text>
  <text x="860" y="495" font-family="monospace" font-size="10" fill="#484f58">tavily_search ready</text>
  <rect x="80" y="575" width="1120" height="35" rx="4" fill="#1c2128" stroke="#30363d" stroke-width="1"/>
  <text x="100" y="597" font-family="monospace" font-size="13" fill="#484f58">/crew &lt;mission&gt;  |  /config  |  /help  |  or type to chat</text>
</svg>
